<svg xmlns="http://www.w3.org/2000/svg" viewBox="0 0 750 500"><defs><style>.cls-1{fill:#b4e7e0;}.cls-2,.cls-6{opacity:0.7;}.cls-3,.cls-4,.cls-5,.cls-6{fill:#7cd1e8;}.cls-3{opacity:0.5;}.cls-4{opacity:0.4;}.cls-5{opacity:0.3;}.cls-7{fill:none;}</style></defs><title>Asset 3</title><g id="Layer_2" data-name="Layer 2"><g id="BACKGROUND_2" data-name="BACKGROUND 2"><rect class="cls-1" width="750" height="500"/><g class="cls-2"><polygon class="cls-3" points="750 28.82 0 60.51 0 41.14 750 15.61 750 28.82"/><polygon class="cls-4" points="750 99.65 0 156.04 0 121.57 750 76.13 750 99.65"/><polygon class="cls-5" points="750 136.95 750 160.26 0 185 0 127.08 750 136.95"/><polygon class="cls-5" points="750 197.16 750 204.05 0 211.37 0 194.24 750 197.16"/><polygon class="cls-3" points="750 94.78 0 105.13 0 85.29 750 47.13 750 94.78"/><polygon class="cls-6" points="750 74.58 0 90.89 0 62.38 750 18.17 750 74.58"/></g><rect class="cls-7" width="750" height="500"/></g></g></svg>